# xmcd
#
# Track frame offsets: 
#        150
#        15250
#        23338
#        36401
#        49383
#        64104
#        75811
#        87950
#        101109
#        113137
#        126854
#        143584
#        170787
#        184861
#        209888
#
# Disc length: 2958 seconds
#
# Revision: 2
# Processed by: cddbd v1.5.2PL0 Copyright (c) Steve Scherf et al.
# Submitted via: ExactAudioCopy v0.95b4
#
DISCID=c80b8c0f
DTITLE=Various Artist - High Noon
DYEAR=2000
DGENRE=Soundtrack
TTITLE0=Ennio Morricone/Man With The Harmonica
TTITLE1=Ennio Morricone/A Fistful Of Dollars
TTITLE2=Dimitri Tiomkin/Rio Bravo
TTITLE3=Dominic Frontiere/Hang 'M High
TTITLE4=Ennio Morricone/A Professional Gun
TTITLE5=Jonny Cash/I Walk The Line
TTITLE6=Stan Jones/Ghost Riders In The Sky
TTITLE7=Ned Washington and Dimitri Tiomkin/High Noon
TTITLE8=Ennio Morricone/For A Few Dollars More
TTITLE9=Ennio Morricone/My Name Is Nobody
TTITLE10=The Allman Brothers Band/Midnight Rider
TTITLE11=Bon Jovi/Blaze Of Glory
TTITLE12=Paul Webster and Dimitri Tiomkin/Green Leaves Of Summer
TTITLE13=Clint Eastwood/Claudia's Theme
TTITLE14=Trevor Jones/Top Of The World
EXTD=
EXTT0=
EXTT1=
EXTT2=
EXTT3=
EXTT4=
EXTT5=
EXTT6=
EXTT7=
EXTT8=
EXTT9=
EXTT10=
EXTT11=
EXTT12=
EXTT13=
EXTT14=
PLAYORDER=
